# xmcd
#
# Track frame offsets:
#	187
#	18275
#	36642
#	51582
#	61932
#	81265
#	99137
#	116965
#	132517
#	149850
#	164877
#	181072
#
# Disc length: 2612 seconds
#
# Revision: 1
# Processed by: cddbd v1.5PL3 Copyright (c) Steve Scherf et al.
# Submitted via: CDex 1.50Beta5
#
DISCID=b80a320c
DTITLE=風 - ファースト・アルバム
DYEAR=1994
DGENRE=New Age
TTITLE0=ダンシングドール
TTITLE1=海岸通
TTITLE2=なんとなく
TTITLE3=星空
TTITLE4=でい どりーむ
TTITLE5=ロンリネス
TTITLE6=あいつ
TTITLE7=桜の道
TTITLE8=東京1975
TTITLE9=はずれくじ
TTITLE10=男は明日はくためだけの靴を磨く
TTITLE11=お前だけが
EXTD=
EXTT0=
EXTT1=
EXTT2=
EXTT3=
EXTT4=
EXTT5=
EXTT6=
EXTT7=
EXTT8=
EXTT9=
EXTT10=
EXTT11=
PLAYORDER=
